<?xml version="1.0" encoding="utf-8"?>
<!-- Generator: Adobe Illustrator 22.0.1, SVG Export Plug-In . SVG Version: 6.00 Build 0)  -->
<svg version="1.1" id="Layer_1" xmlns="http://www.w3.org/2000/svg" xmlns:xlink="http://www.w3.org/1999/xlink" x="0px" y="0px"
	 viewBox="0 0 322.6 322.6" style="enable-background:new 0 0 322.6 322.6;" xml:space="preserve">
<style type="text/css">
	.st0{fill:#EBF4FC;}
	.st1{fill:#56CAFB;}
	.st2{fill:#FBDA56;}
	.st3{fill:#F15772;}
	.st4{fill:#67E445;}
	.st5{fill:#F1B941;}
	.st6{fill:#70E651;}
	.st7{fill:#81CDF6;}
	.st8{fill:#FBDC5E;}
	.st9{fill:#FADB5D;}
	.st10{fill:#FC50AE;}
	.st11{fill:#7BCBF5;}
	.st12{fill:#68E447;}
	.st13{fill:#FAFDFE;}
	.st14{fill:#F6FCFE;}
	.st15{fill:#FAF7E4;}
	.st16{fill:#F5F6E6;}
	.st17{fill:#FFFFFF;}
	.st18{fill:#FEFEFE;}
	.st19{fill:#F2F9FD;}
	.st20{fill:#FEF9E5;}
	.st21{fill:#FEEFF8;}
	.st22{fill:#FEFCF4;}
	.st23{fill:#FEF3F9;}
	.st24{fill:#61B4E4;}
	.st25{fill:#005CB9;}
	.st26{fill:#FEE050;}
	.st27{fill:#AF8400;}
</style>
<path class="st0" d="M72,225c-13-4.1-17.1-13.2-16-21.6c0.8-5.9,3.7-11,7.5-15.5c4.1-4.7,5.9-10.3,7.1-16.2c0.5-2.3,0-4.4-2.1-5.7
	c-2.3-1.5-4,0.2-5.7,1.5c-2.4,1.9-4,5.9-7.6,4.6c-4.3-1.6-4.6-6.2-5.2-10.1c-3.1-19.4,2.5-36.7,12.8-52.9c2.5-2.5,5.3-4.8,6.2-8.4
	c4.7-2.1,7.5-4.7,11.3-10.6c0.8-1.2,1.5-2.7,3.4-2.2c4.9-1.1,8.9-4.5,13.9-5.5c11.1-2.3,16,1.5,16.3,12.9c0.1,2.8,0.6,5.6,1,8.4
	c-1,2.3-3.1,2.2-5.1,2.4c-3.2,0.2-6.3,0.2-9.5,0.1c-11.4-0.5-13.2,2.6-13.5,6.6c-0.3,4.9,3.7,6.8,13.7,6.8c6.3,0,12.6,0,18.9,0
	c24.1,0,48.2-0.1,72.3,0.1c2.8,0,6.1-1,8,2.4c0,0.6,0,1.1,0,1.7c-0.7,2.2-2.7,2.1-4.5,2.5c-3,0.7-5.1,2.3-5.9,5.4
	c-0.7,2.9,0.7,5.1,2.9,6.9c1.2,0.9,2.3,1.9,2.4,3.5c1,10.4,9.3,15.5,21.2,13.6c8.7-1.4,16.9-5,25.6-6.3c9.4-1.3,15.8,3.9,16.3,13.3
	c0.7,13.5-4.8,24.9-11.6,35.9c-8.9,14.4-19.7,27.1-33.7,37c-2.3,1.6-4.7,3.1-7.6,3.4c-1.2-1-0.3-2,0-3.1c0.6-2.2-0.8-3.5-2.6-4.1
	c-1.7-0.6-2.8,0.7-3.6,2c-1.1,1.9,0.3,3,1.6,4.1c1,0.8,2.7,0.5,3.3,1.9c-4.7,4.3-10.8,5.5-16.7,7c-7.6,1.9-15.4,1.8-23.1,0.3
	c-11.3-2.2-15.5-9.5-12.5-20.8c1.2-4.5,4.4-8.3,4.3-13.1c1.2-2.8,3.8-2.3,6.1-2.4c6.7-0.2,13.3,0,20-0.1c2,0,4,0.1,5.9-0.7
	c3.3-1.2,5.3-3.5,5.3-7.1c0-3.6-2.1-5.8-5.4-7c-1.8-0.6-3.6-0.6-5.4-0.6c-22.2,0-44.3,0-66.5,0c-1.2,0-2.3,0-3.5,0.2
	c-3.8,0.5-6.7,2.3-7.5,6.2c-0.8,4,1.4,6.6,4.8,8.4c1.6,0.8,3.7,0.9,4.3,3.1c-2.2,3.8-6.4,4.3-9.8,6.2c-1.6,0.8-3.5,1.1-4.3,3
	c-3.4,4.2-6.1,4.5-9.8,0.9c-1.2-1.2-2.4-3-3.9-1C82.2,227.5,77,225.3,72,225z"/>
<path class="st1" d="M70.2,100.8c-0.4,8-0.4,8-7.2,8.4c-4.3,0-8.6-0.1-12.9-0.1c-9,0-16.2-4.8-19.4-12.9c-3.2-8.1-1.2-16.7,5.1-22.8
	c6.2-5.9,14.8-7.1,23-3.2c0.7,0.4,1.5,0.7,2.3,1c3.4,0.3,5.5,2.5,7.3,5.1c0.5,1.6,1.3,3.1,2,4.6c0.2,0.7,0.3,1.5,0.4,2.2
	c0.3,1.3,0.8,2.6,0.8,4C72.1,91.8,73.7,96.5,70.2,100.8z"/>
<path class="st2" d="M277,116.3c2,1.2,2.3,3.2,2.3,5.2c0,5.2,0.1,10.3,0,15.5c-0.1,4.9-2.2,7-7,7c-10.6,0.1-21.3,0-31.9,0
	c-3.2,0-5.9-1.2-6.4-4.4c-1.1-6.9-1.1-13.9,0-20.8c0.2-1.1,0.9-2.2,2-2.7c5.6,1.1,10,4.4,14.2,7.7c4.1,3.2,7.4,2.9,11.6,0.3
	C266.6,121.1,270.9,117,277,116.3z"/>
<path class="st3" d="M72,225c2.1-2,4.1-3.7,7.2-1.5c2.2,1.5,3.7,0.1,4.3-2.2c0.6-2.1,1.7-3.4,4.1-3.4c2.3,0.1,3.2,1.4,3.7,3.3
	c0.8,3.2,2.6,3.3,5.1,1.8c0.9-0.5,2.2-0.6,3.3-0.8c2.1,1.9,3.9,3.7,1.8,6.8c-1.7,2.6-0.3,4,2.2,4.7c2,0.5,3.1,1.7,3.1,3.9
	c0,2.3-1.2,3.3-3.2,3.8c-2.7,0.7-3.7,2.1-2.1,4.7c1.2,1.9,1.3,3.6-0.5,5.3c-1.7,1.6-3.2,1.5-5,0.4c-2.5-1.6-4-1-4.7,1.9
	c-0.5,1.9-1.4,3.3-3.7,3.3c-2.5,0.1-3.6-1.2-4.2-3.4c-0.8-2.7-2.4-3.5-4.9-1.9c-1.9,1.2-3.6,1.2-5.3-0.5c-1.9-1.9-1.3-3.6-0.2-5.4
	c1.5-2.4,0.6-3.7-1.9-4.4c-1.9-0.5-3.3-1.3-3.4-3.7c-0.1-2.5,1.2-3.6,3.4-4.2c2.9-0.7,3.2-2.5,1.7-4.8C72.4,227.6,71.9,226.4,72,225
	z"/>
<path class="st2" d="M66.9,77.3c-1.9-2-3.9-4-5.8-6.1c13.1-6.1,22.8,1,22.8,16.8c-1.2,2.7-2.5,5.4-3.6,8.1c-2.9,7-2.9,7-10.1,4.7
	c0-4.9,0-9.9-0.1-14.8c0.7-1.3-0.3-2.1-0.9-3c-0.3-0.8-0.6-1.6-0.9-2.5C70.4,78.3,66.9,78.6,66.9,77.3z"/>
<path class="st4" d="M112,264.5c3.4-4.1-3.7-2.9-3.1-6.3c0.5-2.5,6.1-1.8,3.2-5.8c-0.1-0.1-0.1-0.3-0.1-0.5c-0.3-1.4,1.1-3,1.4-2.7
	c4.4,4.4,6.5-7.2,10.5-1.5c1.2,1.8,1.8,2.5,3.7,1.4c0.1-0.1,0.3-0.1,0.5-0.1c1.3-0.2,3,1.1,2.8,1.3c-4.3,4.3,7.3,6.5,1.5,10.5
	c-1.8,1.2-2.3,1.9-1.4,3.8c0.7,1.4-0.9,3.4-1.2,3.2c-4.3-4.7-6.4,7.8-10.4,1.4c-1.2-1.9-1.9-2-3.8-1.4
	C112.8,268.6,111.7,267.2,112,264.5z"/>
<path class="st5" d="M277,116.3c-5.7,5.6-13.1,8.8-19.7,12.9c-0.6,0.4-1.8,0.4-2.3,0.1c-6.3-4.3-13.6-7.3-19-13.1
	c1.3-1.3,3-1.3,4.6-1.3c10.6,0,21.2,0,31.7,0C274,114.9,275.7,115,277,116.3z"/>
<path class="st6" d="M284.8,236.4c3.1,0.6,5.5,2.2,5.6,5.4c0,3.1-2.1,5.5-5.2,5.5c-3.1,0.1-5.4-2.1-5.5-5.2
	C279.6,239,281.8,237.2,284.8,236.4z"/>
<path class="st7" d="M317.1,105.3c2.8,0.6,4.1,0.9,4.4,3.2c0.4,2.7,0.2,7.5-4.4,7.5c-3.4-0.1-5.8-1.6-6-5
	C310.9,106.3,314.4,105.5,317.1,105.3z"/>
<path class="st8" d="M111.6,308.7c-1.2,2.3-0.1,6.4-4.6,6.5c-2.7,0-6.7-4.2-6.2-6.7c0.9-4.1,4.8-3.6,7.7-3.9
	C110.8,304.2,111.8,306.2,111.6,308.7z"/>
<path class="st3" d="M164.4,70.9c-3.3-0.5-5.3-2.3-5.2-5.6c0.1-3.3,2.3-5.3,5.5-5.2c3.2,0.1,5.3,2.2,5.2,5.5
	C169.7,69,167.6,70.6,164.4,70.9z"/>
<path class="st9" d="M204,239.8c-1.5,0.2-3,0.3-4.3-0.6c-2.1-1.5-3.3-3.4-2.1-6c1.1-2.3,3-3.8,5.6-3c2.6,0.8,4.2,2.8,3.6,5.7
	c-0.2,1.1-1,2.1-1.6,3.1C204.8,239.3,204.4,239.6,204,239.8z"/>
<path class="st10" d="M11,173.9c-0.4,3-2,5-5.1,5c-2.8,0-4.6-1.9-4.7-4.7c-0.1-2.9,1.7-4.8,4.5-5C8.7,168.9,10.4,170.9,11,173.9z"/>
<path class="st11" d="M39.8,32.7c-3,0.5-3.3,3.7-5.6,4.7c-0.7-2.5-3.5-3.2-4.6-5.3c2.6-0.6,3.5-4.7,4.9-4.3
	C36.4,28.4,37.3,31.4,39.8,32.7z"/>
<path class="st12" d="M240.6,45.1c-0.9-3-3.4-4-5.3-5.7c2.3-1.2,3.9-3.2,5.4-5.1c1.2,2.2,2.9,3.8,5,5
	C244,41.1,241.2,41.9,240.6,45.1z"/>
<path class="st13" d="M48.8,90.2c-2.4-0.8-7.1,1.1-7-1.4c0.1-3.5,4.5-1.8,7-1.9c2.6-0.1,7.5-1,7.4,1.5C56,91.8,51.3,89.1,48.8,90.2z
	"/>
<path class="st13" d="M48.8,84.2c-2.4-0.8-7.1,1.1-7-1.4c0.1-3.5,4.5-1.5,7-1.6c2.6-0.1,7.5-1.4,7.4,1.1
	C56,85.8,51.3,83.1,48.8,84.2z"/>
<path class="st14" d="M46.3,92.9c1.6,0.3,4.3-0.6,4.1,1.5c-0.2,2.7-3.2,1.4-4.9,1.5c-1.5,0.1-4.2,0.7-4.1-1.4
	C41.7,91.8,44.7,93.5,46.3,92.9z"/>
<path class="st15" d="M66.9,77.3c2.9,1.3,6.2,1.7,9,4.4c-3.2,1.4-5.2-1-7.5-1.2C67.8,79.4,67.4,78.4,66.9,77.3z"/>
<path class="st16" d="M69.2,83c0.6,0.2,1.3,0.3,1.8,0.6c1,0.6,3.1,0.6,2.5,2.2c-0.6,1.6-2.3-0.1-3.4,0.1C69.8,85,69.5,84,69.2,83z"
	/>
<path class="st17" d="M87.6,234.1c2,0.4,3.4,1.5,3.2,3.7c-0.2,2.1-1.5,3.3-3.7,3.1c-1.9-0.2-3.1-1.4-3-3.3
	C84.1,235.4,85.5,234.3,87.6,234.1z"/>
<path class="st17" d="M121.6,260.8c-1.3-0.1-2.2-0.8-2.3-2.1c-0.1-1.5,0.9-2.5,2.3-2.5c1.3,0,2.1,1,2.1,2.2
	C123.8,259.7,122.9,260.5,121.6,260.8z"/>
<path class="st18" d="M282.8,241.8c0.5-1.1,1.2-2.2,2.5-1.9c1.1,0.3,2.1,1.2,1.8,2.5c-0.2,0.9-1,1.8-2.1,1.7
	C283.7,244,283,243.1,282.8,241.8z"/>
<path class="st19" d="M318.4,110.1c-0.5,0.8-0.1,2.5-1.6,2.5c-1.2,0-2.2-1-2.3-2.1c-0.2-1.9,1.7-1.6,2.8-1.9
	C318.2,108.3,318.6,109,318.4,110.1z"/>
<path class="st20" d="M108.4,309.2c-0.5,0.8-0.1,2.6-1.6,2.5c-1.3-0.1-2.6-1.2-2.5-2.5c0.1-1.7,2-1.4,3.1-1.7
	C108.5,307.3,108.7,308.2,108.4,309.2z"/>
<path class="st21" d="M166.9,65.5c-0.2,1.2-0.9,2.2-2.1,2.3c-1.6,0.1-2.5-0.9-2.5-2.3c0-1.4,1-2.4,2.5-2.3
	C166,63.3,166.7,64.3,166.9,65.5z"/>
<path class="st22" d="M200.2,235.2c0-1.1,0.6-1.8,1.7-2c0.9-0.1,1.6,0.5,1.8,1.3c0.3,1.1-0.3,2-1.4,2.2
	C201.2,237,200.5,236.3,200.2,235.2z"/>
<path class="st23" d="M5.8,175.8c-1.1-0.3-1.8-1-1.6-2.1c0.2-1.1,1.1-1.7,2.2-1.4c0.8,0.2,1.5,0.9,1.4,1.8
	C7.7,175.2,7,175.8,5.8,175.8z"/>
<g>
	<path class="st24" d="M155.3,125.8c0,3.8,3.1,6.9,6.9,6.9h22.9c3.8,0,6.9-3.1,6.9-6.9v-8c0-3.8-3.1-6.9-6.9-6.9h-22.9
		c-3.8,0-6.9,3.1-6.9,6.9V125.8z"/>
	<path class="st25" d="M155.3,147.6c0,3.8,3.1,6.9,6.9,6.9h22.9c3.8,0,6.9-3.1,6.9-6.9v-8c0-3.8-3.1-6.9-6.9-6.9h-22.9
		c-3.8,0-6.9,3.1-6.9,6.9V147.6z"/>
	<path class="st26" d="M155.3,169.5c0,3.8,3.1,6.9,6.9,6.9h22.9c3.8,0,6.9-3.1,6.9-6.9v-8c0-3.8-3.1-6.9-6.9-6.9h-22.9
		c-3.8,0-6.9,3.1-6.9,6.9V169.5z"/>
	<path class="st27" d="M155.3,191.3c0,3.8,3.1,6.9,6.9,6.9h22.9c3.8,0,6.9-3.1,6.9-6.9v-8c0-3.8-3.1-6.9-6.9-6.9h-22.9
		c-3.8,0-6.9,3.1-6.9,6.9V191.3z"/>
	<path class="st3" d="M171.9,116.6c0-3.9-3.2-7.1-7.1-7.1h-57.3c-3.9,0-7.1,3.2-7.1,7.1v75.8c0,3.9,3.2,7.1,7.1,7.1h57.3
		c3.9,0,7.1-3.2,7.1-7.1V116.6z"/>
	<rect x="109.7" y="171.9" class="st17" width="52.8" height="4.4"/>
	<g>
		<path class="st17" d="M117.2,163H155c-1.1-5.2-4.3-9.6-8.7-12.4c3.1-2.8,5-6.8,5-11.3c0-8.4-6.8-15.2-15.2-15.2
			c-8.4,0-15.2,6.8-15.2,15.2c0,4.5,1.9,8.5,5,11.3C121.5,153.4,118.3,157.8,117.2,163z"/>
	</g>
	<rect x="116.3" y="180.3" class="st17" width="39.5" height="4.4"/>
</g>
<path class="st13" d="M46.7,88"/>
</svg>
